<?xml version="1.0" ?><svg viewBox="0 0 64 64" xmlns="http://www.w3.org/2000/svg"><g data-name="Layer 35" id="Layer_35"><circle cx="32" cy="32" r="29" style="fill:#e6e7e8"/><circle cx="32" cy="32" r="25" style="fill:#bcbec0"/><path d="M32.145,3a29.023,29.023,0,0,1,.69,4.017A25,25,0,1,1,7.924,38.729,29.35,29.35,0,0,1,4,39c-.049,0-.1,0-.145,0A29,29,0,1,0,32.145,3Z" style="fill:#d1d3d4"/><path d="M32,57a25,25,0,0,0,.835-49.979A29.013,29.013,0,0,1,33,10,29,29,0,0,1,7.924,38.729,25,25,0,0,0,32,57Z" style="fill:#a7a9ac"/><path d="M15.062,34.468l32.841-8.8a2,2,0,0,0,1.414-2.449h0a2,2,0,0,0-2.449-1.414L20.411,28.894a11.987,11.987,0,0,1,16.065-8.022,1.982,1.982,0,0,0,2.448-.865,2.016,2.016,0,0,0-1.015-2.878A16,16,0,0,0,16.122,30.043l-2.1.561a2,2,0,0,0,1.036,3.864Z" style="fill:#414042"/><path d="M48.938,29.532,16.1,38.332A2,2,0,1,0,17.132,42.2l26.457-7.089a11.987,11.987,0,0,1-16.065,8.022,1.982,1.982,0,0,0-2.448.865,2.015,2.015,0,0,0,1.015,2.877A16,16,0,0,0,47.878,33.957l2.1-.561a2,2,0,0,0-1.036-3.864Z" style="fill:#414042"/><path d="M32,62A30,30,0,1,1,62,32,30.034,30.034,0,0,1,32,62ZM32,4A28,28,0,1,0,60,32,28.032,28.032,0,0,0,32,4Z" style="fill:#231f20"/><path d="M32,58A26,26,0,1,1,58,32,26.03,26.03,0,0,1,32,58ZM32,8A24,24,0,1,0,56,32,24.028,24.028,0,0,0,32,8Z" style="fill:#231f20"/><path d="M14.54,35.538a3,3,0,0,1-.772-5.9l1.458-.391A17,17,0,0,1,38.281,16.2a3.039,3.039,0,0,1,1.746,1.827A3,3,0,0,1,36.1,21.8a10.877,10.877,0,0,0-6.948-.424A11.05,11.05,0,0,0,22,27.432l24.608-6.593a3,3,0,0,1,1.554,5.8l-32.843,8.8A3.019,3.019,0,0,1,14.54,35.538ZM32.03,16.991a15.1,15.1,0,0,0-3.912.52,14.927,14.927,0,0,0-11,12.654,1,1,0,0,1-.734.844l-2.1.561a1,1,0,0,0-.241,1.832.989.989,0,0,0,.759.1l32.842-8.8a1,1,0,0,0,.24-1.832.982.982,0,0,0-.758-.1L20.67,29.859a1,1,0,0,1-1.224-1.227,13.067,13.067,0,0,1,9.189-9.189,12.875,12.875,0,0,1,8.216.5.981.981,0,0,0,1.207-.438h0a.984.984,0,0,0,.079-.825,1.04,1.04,0,0,0-.6-.624A14.779,14.779,0,0,0,32.03,16.991Z" style="fill:#231f20"/><path d="M31.968,49.009a16.783,16.783,0,0,1-6.249-1.21,3.039,3.039,0,0,1-1.746-1.827A3,3,0,0,1,27.9,42.2a10.883,10.883,0,0,0,6.948.424A11.05,11.05,0,0,0,42,36.568L17.391,43.161a3,3,0,0,1-1.554-5.8l32.843-8.8a3,3,0,1,1,1.552,5.795l-1.458.391A16.912,16.912,0,0,1,36.4,48.42,17.107,17.107,0,0,1,31.968,49.009ZM26.8,43.988a1,1,0,0,0-.861.505h0a.984.984,0,0,0-.079.825,1.04,1.04,0,0,0,.6.624A15,15,0,0,0,46.885,33.835a1,1,0,0,1,.734-.844l2.1-.561a1,1,0,0,0,.241-1.832.989.989,0,0,0-.759-.1L16.355,39.3a1,1,0,0,0-.24,1.832.99.99,0,0,0,.758.1L43.33,34.141a1,1,0,0,1,1.224,1.227,13.067,13.067,0,0,1-9.189,9.189,12.875,12.875,0,0,1-8.216-.5A.926.926,0,0,0,26.8,43.988Zm-1.727.005h0Z" style="fill:#231f20"/></g></svg>